<svg xmlns="http://www.w3.org/2000/svg" width="131" height="36" viewBox="0 0 131 36" fill="none"><path d="M0.925321 15.375C0.96914 16.9358 0.80586 18.5196 1.01035 20.058C1.24823 21.0877 3.21542 20.5974 3.99999 20.5494C7.16492 20.0585 9.93807 17.7893 11.0377 14.7923C12.0357 12.0129 11.489 9.01543 11.5782 6.10925C11.5823 5.11288 11.5709 4.13581 11.5923 3.13578C11.537 2.1055 12.0289 0.259862 10.5813 0.0798882C7.5499 -0.169988 4.05581 0.0418071 2.06046 2.61934C0.726046 4.22032 0.832465 6.34505 0.855418 8.31693V8.32736L0.924799 15.3755L0.925321 15.375Z" fill="#3F2D6F"></path><path d="M0.901026 23.9289C0.907808 26.3176 1.09926 28.6197 2.48166 30.662C3.0388 31.5285 3.71487 32.3522 4.52658 32.9886C5.40766 33.6699 6.45933 34.1999 7.48022 34.6355C8.68161 35.1326 9.97429 35.3538 11.2591 35.4201C12.605 35.4973 14.0552 35.5098 15.4423 35.4618C17.8044 35.4117 19.8848 35.0132 21.5447 33.2223C22.43 32.2666 23.1572 31.1518 23.3606 29.8388C23.6491 28.169 23.2401 26.5816 22.2907 25.1866C21.406 23.8945 19.9938 22.9545 18.5212 22.4391C18.0381 22.2789 17.3975 22.1594 16.9312 22.1276C15.205 22.1047 8.5032 22.1297 4.28452 22.1193C3.52864 22.1188 2.82596 22.1193 2.09407 22.1193C1.8588 22.1323 1.61414 22.0843 1.41538 22.1683C0.87077 22.4724 0.898418 23.364 0.901548 23.9195V23.93L0.901026 23.9289Z" fill="#FF5959"></path><path d="M36.2527 20.1155C36.2089 18.5547 36.3722 16.971 36.1677 15.4326C35.9298 14.4028 33.9626 14.8932 33.178 14.9412C30.0131 15.4321 27.24 17.7013 26.1403 20.6982C25.1424 23.4776 25.6891 26.4751 25.5999 29.3813C25.5957 30.3777 25.6072 31.3547 25.5858 32.3548C25.6411 33.385 25.1491 35.2307 26.5968 35.4107C29.6276 35.6611 33.1222 35.4493 35.1176 32.8712C36.4515 31.2702 36.345 29.1455 36.3221 27.1741V27.1637L36.2527 20.1155Z" fill="#EFBDFA"></path><path d="M36.2771 11.5612C36.2703 9.1725 36.0789 6.87041 34.6965 4.8281C34.1393 3.96162 33.4633 3.13792 32.6516 2.50149C31.7705 1.8202 30.7188 1.29019 29.6979 0.854605C28.4965 0.357461 27.2039 0.136276 25.919 0.0700254C24.5731 -0.00718056 23.1229 -0.0197004 21.7358 0.0282924C19.3737 0.078372 17.2933 0.476921 15.6334 2.26779C14.7481 3.22347 14.0209 4.33826 13.8175 5.65128C13.529 7.32112 13.938 8.90854 14.8874 10.3035C15.7722 11.5956 17.1843 12.5357 18.6569 13.0511C19.14 13.2112 19.7806 13.3307 20.247 13.3625C21.9732 13.3854 28.6749 13.3604 32.8936 13.3708C33.6495 13.3714 34.3522 13.3708 35.0841 13.3708C35.3193 13.3578 35.564 13.4058 35.7628 13.3218C36.3074 13.0177 36.2797 12.1261 36.2766 11.5706V11.5601L36.2771 11.5612Z" fill="#3F2D6F"></path><path d="M88.9605 21.7446H66.3413C66.3805 26.4387 70.1635 30.8726 74.9205 31.2135C79.1929 31.5193 82.7812 29.4858 84.7924 25.7506L87.978 27.3211C84.8372 32.7896 78.91 35.6929 72.6425 34.1967C64.2916 32.2032 60.6214 22.4474 64.1914 14.9279C66.9288 9.16194 73.0143 6.35754 79.2405 7.87688C85.3295 9.36255 89.6678 15.4757 88.9598 21.7453L88.9605 21.7446ZM85.249 18.3776C84.5753 14.7308 81.674 11.7685 78.0381 11.0453C73.9296 10.2274 69.9464 11.8478 67.7818 15.4371C67.4323 16.0165 66.6704 17.5969 66.6473 18.2331C66.6445 18.3194 66.6592 18.3243 66.7258 18.3776H85.2483H85.249Z" fill="#3F2D6F"></path><path d="M130.697 15.7124H127.301C127.144 15.3961 127.182 14.9787 127.091 14.5894C125.871 9.35026 114.6 9.72273 115.379 15.4487C115.768 18.3106 121.441 18.6655 123.695 19.254C127.058 20.1323 130.247 21.6705 130.758 25.5068C131.717 32.7002 124.317 35.3404 118.418 34.3598C113.988 33.624 110.628 30.3356 110.739 25.673H114.1C114.088 28.4248 115.939 30.3412 118.511 30.9697C121.509 31.7027 127.147 31.0055 127.404 27.0395C127.702 22.4555 121.029 22.2366 117.88 21.4299C114.941 20.6766 112.233 19.1769 111.938 15.8085C111.266 8.12061 120.345 5.9889 126.051 8.61584C128.901 9.92755 130.628 12.5566 130.696 15.7124H130.697Z" fill="#3F2D6F"></path><path d="M92.6392 25.673C92.8107 25.7263 92.726 26.1871 92.7449 26.3386C93.3465 31.1331 99.2723 32.1193 103.057 30.6364C107.174 29.0238 107.023 24.3928 102.775 22.8847C98.4851 21.3618 90.9291 21.8164 90.4998 15.6099C89.9515 7.67302 100.141 5.76717 105.623 9.15939C107.924 10.5826 109.342 13.0454 109.27 15.7825C109.244 15.8176 109.18 15.7123 109.165 15.7123H105.839C105.807 11.5605 101.206 10.4753 97.8409 11.033C95.4431 11.4307 92.7379 13.8802 94.3654 16.4369C95.5531 18.3028 100.564 18.7791 102.702 19.3795C106.901 20.558 109.981 22.811 109.401 27.663C108.723 33.3384 102.347 35.0542 97.4802 34.4306C92.8689 33.84 89.303 30.487 89.3822 25.6723H92.6385L92.6392 25.673Z" fill="#3F2D6F"></path><path d="M51.5665 0V7.85625H62.1408V11.3635H51.5665L51.5637 25.711C51.6772 28.1534 52.3761 30.3953 54.9979 31.0392C57.4426 31.6397 59.9685 30.8274 62.1408 29.7415V33.4592C61.0022 33.8513 59.8677 34.2645 58.6646 34.4314C52.9412 35.2248 48.4167 32.48 48.2059 26.4089V11.3635H41.9727V7.9264L48.2052 7.85625V0H51.5665Z" fill="#3F2D6F"></path></svg>